<?xml version="1.0" encoding="UTF-8" standalone="no"?>
<svg
   xmlns:dc="http://purl.org/dc/elements/1.1/"
   xmlns:cc="http://creativecommons.org/ns#"
   xmlns:rdf="http://www.w3.org/1999/02/22-rdf-syntax-ns#"
   xmlns:svg="http://www.w3.org/2000/svg"
   xmlns="http://www.w3.org/2000/svg"
   xmlns:sodipodi="http://sodipodi.sourceforge.net/DTD/sodipodi-0.dtd"
   xmlns:inkscape="http://www.inkscape.org/namespaces/inkscape"
   width="122px"
   height="42px"
   viewBox="0 0 122 42"
   version="1.1"
   id="SVGRoot"
   sodipodi:docname="Personal-Website-Logo.svg"
   inkscape:version="1.0.1 (3bc2e813f5, 2020-09-07)">
  <defs
     id="defs359" />
  <sodipodi:namedview
     id="base"
     pagecolor="#ffffff"
     bordercolor="#666666"
     borderopacity="1.0"
     inkscape:pageopacity="0.0"
     inkscape:pageshadow="2"
     inkscape:zoom="1.9124024"
     inkscape:cx="102.53141"
     inkscape:cy="73.301686"
     inkscape:document-units="px"
     inkscape:current-layer="layer1"
     inkscape:document-rotation="0"
     showgrid="false"
     inkscape:window-width="1889"
     inkscape:window-height="1050"
     inkscape:window-x="9"
     inkscape:window-y="0"
     inkscape:window-maximized="0" />
  <metadata
     id="metadata362">
    <rdf:RDF>
      <cc:Work
         rdf:about="">
        <dc:format>image/svg+xml</dc:format>
        <dc:type
           rdf:resource="http://purl.org/dc/dcmitype/StillImage" />
        <dc:title></dc:title>
      </cc:Work>
    </rdf:RDF>
  </metadata>
  <g
     inkscape:label="Layer 1"
     inkscape:groupmode="layer"
     id="layer1">
    <path
       style="fill:#000000;fill-opacity:1;fill-rule:nonzero;stroke:none;stroke-width:1.30786"
       id="path86"
       d="m 36.058896,5.9764823 c -0.42089,-0.19637 -0.83775,-0.40308 -1.26264,-0.5891 -0.45782,-0.200427 -3.93011,-1.64411 -4.28271,-1.787697 -0.91543,-0.372776 -3.22033,-1.301811 -4.20377,-1.611424 -0.63962,-0.20137 -1.29509,-0.338467 -1.94264,-0.507701 -2.85251,-0.52761596 -5.82533,-0.54572696 -8.62666,0.325859 -0.49677,0.154566 -0.97651,0.36709 -1.46476,0.550634 -1.50742,0.763991 -2.990724,1.651022 -4.2787981,2.804085 -4.063932,3.637954 -4.715235,3.679084 -6.840645,7.4132227 -0.99896,2.34218 -1.618205,4.91394 -1.790788,7.49246 -0.03384,0.50653 -0.01749,1.01552 -0.0263,1.52328 0.320921,2.663157 1.250392,5.156257 2.612988,7.394957 0.729989,1.19934 1.677754,2.42426 2.507327,3.54273 1.30097,1.59874 2.611176,3.23573 4.1799981,4.5415 0.828578,0.68964 0.987762,0.74493 1.89485,1.30984 2.310464,1.44336 4.651034,2.36315 7.235574,3.04288 2.17999,0.42265 4.46872,0.46573 6.66075,0.0717 0.44383,-0.0798 0.87809,-0.21261 1.31713,-0.31892 2.77706,-0.89067 5.10441,-2.78968 7.38917,-4.64199 l 3.35855,-4.13266 v 0 c -2.25012,1.8564 -4.53133,3.77937 -7.23628,4.79314 -0.42351,0.12251 -0.8402,0.27692 -1.27053,0.3675 -0.41549,0.0875 -0.8393,0.12127 -1.26062,0.16528 -1.75553,0.18343 -3.53489,0.26437 -5.27618,-0.10147 -2.57319,-0.64248 -4.838,-1.5047 -7.13761,-2.92878 -0.88131,-0.53117 -1.03089,-0.57731 -1.83519,-1.23708 -1.550089,-1.27156 -2.832174,-2.88942 -4.113102,-4.45672 -0.8112041,-1.09417 -1.7480351,-2.30405 -2.4595291,-3.47995 -1.307727,-2.16132 -2.200372,-4.572897 -2.440544,-7.151467 0.116381,-3.03257 0.632142,-6.069669 1.971939,-8.7701987 0.274482,-0.44358 4.7914171,-3.81219 0.823458,-1.33074 -1.672092,1.04568 2.9646581,-3.164452 -1.626911,1.02041 -0.43242,0.39412 0.88765,-0.75923 1.351511,-1.10914 0.456463,-0.34433 -1.786648,3.1100697 -1.307425,2.8039397 0.461056,-0.29453 0.28875,-1.1081397 0.759367,-1.3844697 0.47477,-0.19729 -3.158038,3.6380787 -2.67382,3.4697387 2.724261,-0.947079 13.1173261,-8.2521807 15.9218361,-7.7913247 0.63651,0.156626 1.28139,0.277816 1.90953,0.469886 0.67862,0.20749 1.34068,0.47408 2.00588,0.7273 2.57529,0.98033 5.10626,2.09253 7.65312,3.15421 l 3.80442,-3.65376 z"
       sodipodi:nodetypes="cssscscscccscsccscccscssccscsccsssscscssccc" />
    <path
       style="fill:#000000;fill-opacity:1;fill-rule:nonzero;stroke:none"
       id="path88"
       d="m 21.529796,12.679741 c -1.15563,0.92907 -2.39339,1.73859 -3.63845,2.54009 -0.86268,0.55965 -1.76851,1.04964 -2.6214,1.62427 -0.31777,1.85817 -3.134232,2.03091 -4.052522,3.58024 -0.17357,0.29284 -0.12905,0.36737 -0.14651,0.72044 0.0745,0.973467 0.56461,1.854157 1.05411,2.679327 0.5138,0.73338 0.99589,1.48649 1.419012,2.27585 0.47042,0.88473 1.17145,1.61362 1.87542,2.31553 0.36107,0.40215 0.75942,0.76511 1.1038,1.18179 0,0 3.10086,-2.59824 3.10086,-2.59824 v 0 c -0.35341,-0.42683 -0.75821,-0.80074 -1.12936,-1.21199 -0.679,-0.67125 -1.35234,-1.37193 -1.79971,-2.22428 -0.43125,-0.79034 -0.91416,-1.548107 -1.42817,-2.287177 -0.43674,-0.74855 -0.92066,-1.56203 -0.88472,-2.455 0.033,-0.10214 0.0511,-0.21037 0.099,-0.30643 0.48395,-0.97031 4.8814,-3.91065 -1.881352,1.36911 0.785202,-0.66032 1.755572,-1.06519 2.599392,-1.64375 1.24526,-0.80468 2.51016,-1.57947 3.65985,-2.52114 0,0 2.67074,-3.03864 2.67074,-3.03864 z" />
    <path
       style="fill:#000000;fill-opacity:1;fill-rule:nonzero;stroke:none"
       id="path90"
       d="m 24.966016,29.682488 c 0.78172,-0.53093 1.53992,-1.09329 2.26394,-1.70039 1.8952,-1.38122 3.53968,-3.0446 5.32107,-4.55457 1.13935,-1.15662 4.0652,-3.577837 -1.33071,1.00596 1.31743,-1.00433 1.73237,-1.31115 3.58632,-3.066497 0.0887,-0.084 0.0828,-0.23407 0.0864,-0.35619 0.0158,-0.54509 -0.24215,-1.06699 -0.43821,-1.55869 -0.46922,-1.08912 -1.23476,-2.01719 -1.94478,-2.95685 -0.53773,-0.73738 -1.16009,-1.39901 -1.80144,-2.04437 0,0 -3.07728,2.62612 -3.07728,2.62612 v 0 c 0.6274,0.63353 1.24192,1.27762 1.7664,2.00275 0.68731,0.91034 1.43308,1.80806 1.87442,2.8697 0.14816,0.393567 0.40093,0.869907 0.25511,1.305807 -0.0303,0.0905 -0.2393,0.29358 -0.16458,0.23423 2.01289,-1.598747 3.79703,-3.238077 2.53768,-2.086487 -1.64055,1.350587 -3.28852,2.644177 -4.81519,4.111067 -1.23059,1.05811 -4.50568,4.0186 0.79894,-0.58516 -0.72224,0.60639 -1.45083,1.19649 -2.23049,1.7298 0,0 -2.68756,3.02377 -2.68756,3.02377 z" />
    <path
       style="fill:#000000;fill-opacity:1;fill-rule:nonzero;stroke:none"
       id="path94"
       d="m 21.519746,23.527488 c 0.52702,-0.79 0.93297,-1.648687 1.40505,-2.468757 0.31149,-0.54971 0.60227,-1.13824 1.02987,-1.60815 0.31164,-0.35718 0.61201,-0.71465 0.8571,-1.12214 0.23161,-0.42063 0.44736,-0.83871 0.59019,-1.30396 0.0385,-0.0765 0.0771,-0.15293 0.11562,-0.2294 0,0 -3.369,2.23964 -3.369,2.23964 v 0 c -0.0328,0.085 -0.0657,0.16997 -0.0985,0.25495 -0.17348,0.42761 -0.39776,0.83013 -0.6468,1.21785 -0.28378,0.37254 -0.57484,0.73539 -0.87289,1.09725 -0.3653,0.533207 -0.69395,1.091247 -0.99446,1.663417 -0.43922,0.82528 -0.8814,1.65638 -1.44624,2.40426 0,0 3.43006,-2.14496 3.43006,-2.14496 z" />
    <text
       xml:space="preserve"
       style="font-style:normal;font-weight:normal;font-size:27.4099px;line-height:1.25;font-family:sans-serif;fill:#000000;fill-opacity:1;stroke:none;stroke-width:0.685246"
       x="46.820869"
       y="33.69611"
       id="text158"
       transform="scale(1.0554402,0.94747197)"><tspan
         sodipodi:role="line"
         id="tspan156"
         x="46.820869"
         y="33.69611"
         style="stroke-width:0.685246">Code</tspan></text>
    <path
       style="fill:#000000;stroke:none;stroke-width:1px;stroke-linecap:butt;stroke-linejoin:miter;stroke-opacity:1"
       d="m 44.567986,1.8689573 1.34851,3.236411"
       id="path160" />
    <path
       style="fill:none;stroke:#000000;stroke-width:0.940744px;stroke-linecap:butt;stroke-linejoin:miter;stroke-opacity:1"
       d="m 45.471906,8.4153493 1.07864,27.4531487"
       id="path169" />
  </g>
</svg>
